<svg xmlns="http://www.w3.org/2000/svg" viewBox="0 0 640 480" fill="none"><rect width="640" height="480" rx="36" fill="#EAF2FF"/><circle cx="510" cy="110" r="90" fill="#005FFF" opacity=".1"/><path d="M196 275c-43 0-70-50-42-83 20-24 56-21 72 0 8-56 84-68 109-16 39-19 83 9 78 53 34 0 55 42 32 70-11 14-28 21-45 21H196c-46 0-61-45-31-69" fill="white" stroke="#B9D5FF" stroke-width="8"/><rect x="244" y="212" width="154" height="54" rx="14" fill="#005FFF"/><circle cx="268" cy="239" r="8" fill="white"/><path d="M294 239h78" stroke="white" stroke-width="10" stroke-linecap="round"/><path d="M136 166h86v56h-86zM418 322h86v56h-86z" fill="#0F172A"/><path d="M222 194h62M387 239h84M418 350h-58" stroke="#005FFF" stroke-width="10" stroke-linecap="round"/><circle cx="136" cy="194" r="22" fill="#005FFF"/><circle cx="504" cy="350" r="22" fill="#005FFF"/><path d="M283 360c30 28 70 28 102 0" stroke="#0F172A" stroke-width="10" stroke-linecap="round"/></svg>
